<svg xmlns="http://www.w3.org/2000/svg" width="128" height="128" fill="none">
  <g clip-path="url(#a)">
    <path fill="#fff" d="M0 0h128v128H0z"/>
    <path fill="#B91C1C" d="M26.563 109c-4 0-4.792-1.792-2.375-5.375L51.874 62.75l-25.438-38c-2.416-3.583-1.625-5.375 2.375-5.375h12.625c2.209 0 4.084 1.23 5.626 3.688l17.062 27 17.063-27c1.541-2.459 3.416-3.688 5.624-3.688h12.626c4 0 4.791 1.792 2.374 5.375l-25.5 38 27.75 40.875c2.417 3.583 1.626 5.375-2.374 5.375H88.875c-2.167 0-4.042-1.229-5.625-3.688L64.125 75.438 45 105.311c-1.583 2.459-3.458 3.688-5.625 3.688H26.562Z"/>
  </g>
  <defs>
    <clipPath id="a">
      <path fill="#fff" d="M0 0h128v128H0z"/>
    </clipPath>
  </defs>
</svg>
